<?xml version="1.0" standalone="no"?>
<!DOCTYPE svg PUBLIC "-//W3C//DTD SVG 20010904//EN"
 "http://www.w3.org/TR/2001/REC-SVG-20010904/DTD/svg10.dtd">
<svg version="1.0" xmlns="http://www.w3.org/2000/svg"
 width="16.000000pt" height="16.000000pt" viewBox="0 0 16.000000 16.000000"
 preserveAspectRatio="xMidYMid meet">
<metadata>
Created by potrace 1.11, written by Peter Selinger 2001-2013
</metadata>
<g transform="translate(0.000000,16.000000) scale(0.005316,-0.005316)"
fill="#000000" stroke="none">
<path d="M173 1982 l-33 -3 0 -470 c0 -258 3 -469 8 -470 9 0 2648 0 2687 0
l30 1 0 470 0 470 -35 1 c-164 2 -2633 3 -2657 1z m2649 -452 c-1 -223 -1
-415 -1 -427 l-1 -23 -1318 0 -1319 0 0 430 0 430 1320 -2 1319 -3 0 -405z"/>
<path d="M501 1763 c-58 -21 -131 -95 -152 -153 -23 -64 -18 -172 9 -231 42
-91 121 -136 245 -138 92 -1 158 22 211 75 55 57 71 100 71 201 0 62 3 86 9
75 5 -9 10 -82 11 -161 2 -144 2 -145 29 -168 39 -33 109 -34 163 -3 32 19 33
19 33 0 0 -18 5 -19 83 -13 45 3 84 7 85 9 2 1 -5 11 -16 22 -17 17 -20 35
-21 113 -1 52 -3 122 -4 157 -1 34 0 63 3 63 48 13 48 12 48 -100 0 -206 1
-218 20 -241 26 -32 91 -41 133 -19 19 10 40 21 46 24 7 4 29 -3 48 -15 88
-54 225 -2 225 86 0 54 -16 80 -79 131 -67 54 -95 97 -80 125 24 46 102 5 115
-60 4 -18 10 -32 15 -32 9 0 11 10 11 68 1 36 12 42 28 13 11 -21 14 -278 4
-305 -3 -9 -12 -16 -20 -16 -16 0 -19 -17 -4 -22 5 -1 55 -2 111 0 l100 3 -23
22 c-23 22 -24 26 -23 194 l1 173 -51 -6 c-28 -4 -67 -2 -87 4 -28 8 -39 7
-50 -5 -12 -11 -21 -12 -43 -3 -37 14 -112 15 -145 2 -32 -13 -66 -50 -73 -81
-9 -38 15 -81 81 -147 34 -34 64 -73 68 -88 14 -56 -44 -75 -89 -30 -23 23
-44 76 -39 97 1 4 -4 7 -11 7 -8 0 -12 -16 -13 -47 0 -41 -3 -48 -19 -48 -19
0 -20 8 -21 160 l-1 161 39 -1 c21 -1 38 3 38 7 0 8 -20 11 -56 9 -18 -2 -20
4 -21 59 -1 33 -2 65 -2 72 -1 6 -12 1 -25 -11 -13 -12 -42 -25 -65 -28 -39
-5 -40 -7 -43 -47 l-3 -41 -45 -2 c-25 -1 -76 -2 -114 -2 l-69 -1 27 -25 c27
-25 27 -26 25 -153 -2 -139 -12 -172 -53 -172 -13 0 -27 7 -30 16 -3 9 -6 88
-6 177 l0 162 -158 1 -158 2 4 -107 c6 -155 -25 -245 -93 -271 -19 -7 -33 -6
-54 5 -62 31 -92 123 -87 263 4 114 17 162 55 204 48 54 111 37 151 -42 17
-33 21 -36 70 -37 29 -2 61 -5 71 -8 66 -21 -48 95 -116 118 -60 21 -165 21
-224 0z"/>
<path d="M1833 1772 c-44 -7 -65 -65 -36 -100 36 -45 141 -28 144 23 4 64 -32
89 -108 77z"/>
<path d="M2150 1760 c0 -3 9 -13 20 -23 15 -12 20 -29 20 -63 0 -43 -1 -45
-22 -38 -55 18 -122 2 -165 -38 -79 -75 -66 -286 21 -339 44 -27 113 -25 143
3 l23 21 0 -21 c0 -17 5 -21 23 -18 12 3 97 5 190 5 104 1 167 5 167 11 0 6
-8 10 -18 10 -37 0 -42 20 -42 160 0 106 3 140 16 158 22 32 35 27 18 -7 -12
-23 -12 -34 -3 -55 7 -14 15 -26 18 -27 70 -12 111 13 111 67 0 38 -38 87 -62
80 -7 -3 -25 -7 -40 -10 -15 -3 -34 -13 -42 -22 -15 -14 -16 -14 -16 4 0 19
-5 20 -90 15 l-90 -6 0 71 0 71 -90 -2 c-49 -1 -90 -4 -90 -7z m24 -146 c14
-5 16 -28 16 -154 0 -158 -6 -180 -50 -180 -29 0 -42 34 -48 125 -6 98 11 179
41 200 25 17 21 17 41 9z m196 -174 c0 -87 -4 -161 -8 -164 -4 -2 -14 -1 -22
4 -12 7 -14 38 -13 157 1 81 2 156 2 166 1 15 5 16 21 7 19 -10 20 -21 20
-170z"/>
</g>
</svg>
